<?xml version="1.0" standalone="no"?>
<!DOCTYPE svg PUBLIC "-//W3C//DTD SVG 1.1//EN" "http://www.w3.org/Graphics/SVG/1.1/DTD/svg11.dtd" >
<svg>
<metadata>
Created by FontForge 20090622 at Mon Nov  7 04:37:31 2016
 By deploy user
Created by Phil Steinschneider (philips@pressroom.com). Inspired by the original Blade Runner&#194;&#174; movie font. Blade Runner&#194;&#174; is a trademark of the Blade Runner Partnership. All rights reserved.
</metadata>
<defs>
<font id="BladeRunnerMovieFont" horiz-adv-x="1024" >
  <font-face 
    font-family="Blade Runner Movie Font"
    font-weight="700"
    font-style="italic"
    font-stretch="normal"
    units-per-em="2048"
    panose-1="2 11 7 3 2 2 2 9 2 4"
    ascent="1638"
    descent="-410"
    x-height="1407"
    cap-height="1413"
    bbox="-335 -483 2327 1768"
    underline-thickness="217"
    underline-position="-109"
    slope="-10"
    unicode-range="U+0020-U+2122"
  />
<missing-glyph 
d="M128 0v1638h768v-1638h-768zM256 128h512v1382h-512v-1382z" />
    <glyph glyph-name=".notdef" 
d="M128 0v1638h768v-1638h-768zM256 128h512v1382h-512v-1382z" />
    <glyph glyph-name=".null" horiz-adv-x="0" 
 />
    <glyph glyph-name="nonmarkingreturn" horiz-adv-x="582" 
 />
    <glyph glyph-name="space" unicode=" " horiz-adv-x="582" 
 />
    <glyph glyph-name="exclam" unicode="!" horiz-adv-x="1060" 
d="M1086 1415l-232 -837h-496l231 837h497zM1086 1415zM793 354l-98 -357h-496l98 357h496z" />
    <glyph glyph-name="quotedbl" unicode="&#x22;" horiz-adv-x="1034" 
d="M371 1440h363l-217 -561h-362zM834 1440h363l-217 -561h-363z" />
    <glyph glyph-name="numbersign" unicode="#" horiz-adv-x="1370" 
d="M294 -21l123 425l-138 1l1 148l180 -1l105 362l-183 -1v149l225 1l129 431l122 -1l-128 -431l259 -2l123 428l124 -1l-124 -428l163 -3l1 -143l-206 -3l-105 -362l209 -1l1 -150l-253 2l-123 -425l-124 1l123 425l-258 3l-123 -425zM583 551l257 1l106 359l-258 2z" />
    <glyph glyph-name="dollar" unicode="$" horiz-adv-x="1672" 
d="M675 608zM1511 1417l107 351l-500 -3l-114 -347q17 0 -19 0q-35 -1 -87 -1h-70q-138 0 -267 -117q-114 -103 -156 -231h1358l94 348h-346zM1511 1417zM1020 -346h-504l90 342l-504 -2l117 402l788 -3q107 17 107 103q0 48 -11 65q-14 21 -67 41l-404 -3q-132 -1 -199 87
q-61 79 -61 215q0 29 3 61l933 -2q192 -26 267 -113l71 -85q38 -100 38 -229q0 -40 -4 -84q-9 -99 -53 -176q-118 -206 -376 -278l-143 -1z" />
    <glyph glyph-name="percent" unicode="%" horiz-adv-x="2081" 
d="M1405 344q0 -66 44.5 -111t110.5 -45q65 0 110.5 46t45.5 110q0 65 -45 110.5t-111 45.5t-110.5 -45t-44.5 -111zM1189 344q0 159 106 266t265 107q156 0 264.5 -108.5t108.5 -264.5q0 -155 -109 -264t-264 -109q-159 0 -265 107t-106 266zM608 -29l854 1473h160
l-854 -1473h-160zM518 1071q0 -66 44.5 -111t110.5 -45q65 0 110.5 46t45.5 110q0 66 -44.5 112t-111.5 46q-66 0 -110.5 -45.5t-44.5 -112.5zM303 1073q0 159 105.5 265t264.5 106q156 0 264.5 -107.5t108.5 -263.5q0 -155 -109 -264t-264 -109q-158 0 -264 107t-106 266z
" />
    <glyph glyph-name="ampersand" unicode="&#x26;" horiz-adv-x="1374" 
d="M487 645q-206 -92 -206 -229q0 -89 52 -144t140 -55q103 0 229 78zM885 0l-56 90q-185 -123 -397 -123q-192 0 -315 119.5t-123 310.5q0 161 114 277q84 85 259 168l-48 84q-65 114 -65 207q0 157 114 252q107 88 267 88q163 0 270 -84q117 -91 117 -250
q0 -241 -297 -381l170 -275q79 113 100 213h240q-50 -246 -207 -422l170 -274h-313zM605 955q159 79 159 198q0 111 -123 111q-129 0 -129 -113q0 -55 75 -170q5 -8 18 -26z" />
    <glyph glyph-name="quotesingle" unicode="'" horiz-adv-x="624" 
d="M396 1440h363l-217 -561h-362z" />
    <glyph glyph-name="parenleft" unicode="(" horiz-adv-x="669" 
d="M581 -263q-372 0 -460 275q-22 69 -22 169q0 129 35 265l129 500h239l-126 -520q-35 -144 -35 -275q0 -99 22 -169q51 -161 218 -245zM531 1065q67 312 186 537q-142 0 -271 -179q-115 -160 -157 -358h242z" />
    <glyph glyph-name="parenright" unicode=")" horiz-adv-x="623" 
d="M397 946h241l-136 -562q-62 -249 -175 -392q-194 -247 -573 -255q347 22 434 311q67 221 209 898zM424 1067h228q8 69 8 130q0 165 -59 271q-74 130 -227 136q80 -116 80 -263q0 -50 -13 -141q-14 -97 -17 -133z" />
    <glyph glyph-name="asterisk" unicode="*" 
d="M555 889l-174 -248l-172 119l192 241l-278 78l65 203l267 -96v287h200v-287l267 94l67 -203l-280 -76l190 -239l-172 -125z" />
    <glyph glyph-name="plus" unicode="+" horiz-adv-x="1123" 
d="M1044 597l-325 -4l-114 -401l-249 -1l122 400h-331l80 263h332l122 399h240l-123 -397l332 -3z" />
    <glyph glyph-name="comma" unicode="," horiz-adv-x="566" 
d="M58 -336l32 106q161 8 214 230h-162l83 299h303l-80 -283q-48 -169 -130 -251q-95 -93 -260 -101z" />
    <glyph glyph-name="hyphen" unicode="-" horiz-adv-x="1137" 
d="M1005 500h-918l73 260h918z" />
    <glyph glyph-name="hyphen" unicode="&#x2010;" horiz-adv-x="1137" 
d="M1005 500h-918l73 260h918z" />
    <glyph glyph-name="period" unicode="." horiz-adv-x="615" 
d="M103 0l85 299h312l-84 -299h-313z" />
    <glyph glyph-name="slash" unicode="/" horiz-adv-x="862" 
d="M204 -190l496 1701h137l-498 -1701h-135z" />
    <glyph glyph-name="zero" unicode="0" horiz-adv-x="1320" 
d="M820 1410l325 3q269 2 269 -279q0 -29 -3 -61h-1169q39 122 143 223q118 114 243 114h192zM566 498l16 55l107 383h-477l-104 -386q-28 -104 -28 -199q0 -82 22 -137q50 -126 197 -177q83 -29 234 -37l55 -3q545 24 677 511l43 164l69 261l-468 3l-116 -435
q-24 -91 -119 -95q-109 -5 -109 70q0 10 1 22z" />
    <glyph glyph-name="one" unicode="1" horiz-adv-x="910" 
d="M846 936l-263 -939h-495l263 939h495zM880 1073h-633l220 340h504z" />
    <glyph glyph-name="two" unicode="2" horiz-adv-x="1350" 
d="M1435 1073q0 128 -40 199q-79 141 -196 141h-501q-142 0 -273 -114q-118 -103 -159 -226h1169zM-27 -3l1180 3l98 348h-593q86 71 288 149q206 80 289 145q145 113 184 294h-517q1 -5 1 -11q0 -56 -214 -157q-314 -148 -444 -256q-251 -209 -272 -515z" />
    <glyph glyph-name="three" unicode="3" horiz-adv-x="1353" 
d="M1448 1073q0 124 -40 199q-75 141 -198 141h-502q-141 0 -272 -114q-116 -101 -159 -226h1171zM699 572q196 0 196 -83q0 -48 -51 -90q-42 -34 -96 -51q-47 -15 -92 -15q-86 0 -86 66q0 18 7 41h-459q-23 -128 -12 -180q55 -263 345 -263h379q192 38 331 200t139 356
q0 115 -60 187q116 99 166 196h-786l-98 -364h177z" />
    <glyph glyph-name="four" unicode="4" horiz-adv-x="1413" 
d="M343 1410l-101 -340h462l95 337zM1052 1407l-94 -337h464l92 337h-462zM667 -3l135 471l-713 -3l122 471h456l-31 -120h260l28 120h465l-254 -942z" />
    <glyph glyph-name="five" unicode="5" horiz-adv-x="1376" 
d="M1373 1073h-1224l217 340h1108zM688 572q85 0 120 -9q75 -18 75 -77q0 -58 -42.5 -103.5t-100.5 -49.5q-44 -3 -68 -3q-119 0 -119 76q0 13 3 28l-459 3q-22 -129 -12 -177q55 -263 346 -263h403q91 15 199 83q94 60 137 115q106 137 128 314q3 23 3 47q0 121 -67 202
q-78 102 -183 141q-101 37 -250 37h-557l-104 -361z" />
    <glyph glyph-name="six" unicode="6" horiz-adv-x="1401" 
d="M1272 394q-123 -400 -498 -397l-397 3q-279 2 -279 294q0 213 156 642h464l-11 -44h280q329 0 329 -258q0 -97 -44 -240zM829 495q4 21 4 37q0 36 -29 45q-11 4 -79 6q-98 4 -125 -91l3 18l-3 -25q-6 -22 -6 -38q0 -41 39 -51q18 -5 71 -2q96 5 122 95zM1138 1411
q269 0 269 -278q0 -29 -4 -61h-1118q39 125 141 225q117 114 241 114h471z" />
    <glyph glyph-name="seven" unicode="7" horiz-adv-x="1120" 
d="M1179 1073h-1065l217 340h942zM1147 936q-106 -106 -208 -253q-98 -140 -137 -225q-62 -132 -82 -185q-50 -129 -80 -276h-468q56 246 165 461q161 318 345 478h465z" />
    <glyph glyph-name="eight" unicode="8" horiz-adv-x="1308" 
d="M1403 1073q0 124 -40 199q-75 141 -195 141h-505q-141 0 -271 -114q-118 -103 -157 -226h1168zM221 936q-3 -42 2 -68q14 -77 55 -122q-225 -190 -225 -426q0 -247 228 -323h501q198 40 338 215q132 165 132 342q0 111 -60 189q118 92 170 193h-1141zM725 569
q122 0 122 -79q0 -95 -144 -142q-46 -15 -93 -15q-122 0 -122 79q0 40 41 80q79 77 196 77z" />
    <glyph glyph-name="nine" unicode="9" horiz-adv-x="1319" 
d="M1144 1413q269 0 269 -279q0 -29 -3 -61h-1169q39 125 143 226q117 114 243 114h517zM792 495q-24 -88 -119 -95q-109 -8 -109 69q0 15 2 23l6 25h-474q-20 -108 -20 -178q0 -76 23 -134q51 -128 167 -174q73 -29 203 -31l199 -3q148 12 214 36q118 43 223 162
q166 189 287 741h-1168q-8 -69 -8 -74q0 -276 326 -272l275 3z" />
    <glyph glyph-name="colon" unicode=":" horiz-adv-x="776" 
d="M329 778l82 297h312l-83 -297h-311zM113 0l83 299h311l-83 -299h-311z" />
    <glyph glyph-name="semicolon" unicode=";" horiz-adv-x="827" 
d="M390 778l81 297h312l-82 -297h-311zM88 -338l36 106q162 8 220 232h-164l89 295h303l-83 -281q-100 -337 -401 -352z" />
    <glyph glyph-name="less" unicode="&#x3c;" horiz-adv-x="1706" 
d="M1442 1194v-219l-893 -365l893 -364v-219l-1178 485v199z" />
    <glyph glyph-name="equal" unicode="=" horiz-adv-x="1243" 
d="M1123 427h-918l74 258h918zM1234 793h-918l73 260h918z" />
    <glyph glyph-name="greater" unicode="&#x3e;" horiz-adv-x="1706" 
d="M264 1194l1178 -483v-199l-1178 -485v219l895 364l-895 365v219z" />
    <glyph glyph-name="question" unicode="?" horiz-adv-x="1405" 
d="M1309 845q-35 -26 -103 -53l-153 -60q-24 -10 -81 -51l-30.5 -33t-30.5 -69l-401 2q63 155 116 220q75 91 214 139q165 57 175 140q7 59 -49 94q-46 29 -109 29q-175 0 -233 -203h-389q111 475 671 475q205 0 352 -75q188 -96 188 -281q0 -24 -2 -41q-10 -85 -42 -133
q-14 -21 -93 -100zM774 0h-455l116 355h449z" />
    <glyph glyph-name="at" unicode="@" horiz-adv-x="2048" 
d="M1167 272q-107 -163 -297 -163q-323 0 -323 340q0 225 127 387q138 176 356 176q159 0 236 -131l53 98h178l-147 -598q-7 -28 -7 -41q0 -70 95 -70q80 0 161 76q175 165 175 422q0 261 -208 413q-186 136 -456 136q-282 0 -483 -135q-353 -238 -353 -660q0 -325 222 -506
q206 -168 538 -168q331 0 604 191l82 -117q-307 -231 -682 -231q-390 0 -639 192q-309 238 -309 637q0 341 207 594q301 367 819 367q349 0 576 -174q268 -206 268 -543q0 -339 -254 -543q-143 -115 -324 -115q-211 0 -215 166zM1217 700q-27 166 -175 166q-134 0 -215 -151
q-67 -125 -67 -271q0 -188 158 -188q92 0 160 70q61 62 85 157z" />
    <glyph glyph-name="A" unicode="A" horiz-adv-x="1071" 
d="M943 1073l-76 340h-514l-303 -340h893zM507 580l146 -583h514l-197 939h-997l-308 -357z" />
    <glyph glyph-name="B" unicode="B" horiz-adv-x="1611" 
d="M1640 1070h-1471l295 349l911 1q268 0 268 -289q0 -29 -3 -61zM1626 934q0 -132 -159 -193q59 -99 63 -107q24 -51 24 -131q0 -8 -2 -41q-12 -201 -162 -327q-119 -100 -255 -134l-1118 2l272 931h1337zM981 450q0 63 -43 70h-318l-40 -143h318q29 0 56 22.5t27 50.5z
" />
    <glyph glyph-name="C" unicode="C" horiz-adv-x="1474" 
d="M1579 1413l-101 -343h-1226q38 126 142 228q117 115 243 115h942zM1289 379l-107 -382h-649q-338 0 -431 217q-28 65 -18 181q2 23 9 82l119 456l508 3l-147 -453q7 -27 13 -54q19 -38 76 -50h627z" />
    <glyph glyph-name="D" unicode="D" horiz-adv-x="1575" 
d="M1613 1070h-1419l220 343h826q134 0 250 -104q118 -107 123 -239zM1639 936q0 -361 -140 -566q-112 -164 -205 -234q-185 -139 -464 -139h-814l268 939h505l-170 -572q48 -19 103 -19q103 0 213 62q179 101 234 289q29 98 33 240h437z" />
    <glyph glyph-name="E" unicode="E" horiz-adv-x="1473" 
d="M1587 1413l-91 -343h-1334l220 343h1205zM1454 936l-99 -373h-664l-55 -193h661l-99 -367h-1202l250 933h1208z" />
    <glyph glyph-name="F" unicode="F" horiz-adv-x="1393" 
d="M1562 1413l-98 -343h-1328l218 343h1208zM1436 936l-113 -374h-658l-153 -559h-538l260 933h1202z" />
    <glyph glyph-name="G" unicode="G" horiz-adv-x="1620" 
d="M1707 1413l-85 -341h-1336q36 119 143 225q117 116 243 116h1035zM1586 884l-109 -400q-45 -164 -138 -273q-178 -208 -517 -208h-245q-358 0 -437 202q-32 83 -33 149q0 56 21 132l127 450h483l-121 -422q-10 -35 -10 -52q0 -40 40 -52h291q61 15 83 104l3 24l-303 -3
l217 349h648z" />
    <glyph glyph-name="H" unicode="H" horiz-adv-x="1652" 
d="M1770 1413l-91 -343h-499l95 343h495zM908 1413l-92 -343h-492l89 344zM1638 936l-253 -936h-496l147 566h-358l-159 -563h-501l259 933h1361z" />
    <glyph glyph-name="I" unicode="I" horiz-adv-x="743" 
d="M869 1413l-94 -343h-493l98 343h489zM745 936l-257 -933h-498l260 933h495z" />
    <glyph glyph-name="J" unicode="J" horiz-adv-x="1578" 
d="M1691 1413l-95 -343h-474l95 343h474zM1562 936q-84 -333 -117 -432q-66 -200 -155 -296q-189 -205 -518 -205h-242q-349 0 -433 205q-20 49 -20 126q0 87 26 210h474l-33 -119q-11 -40 -11 -51q0 -41 41 -53h291q57 15 82 104l144 511h471z" />
    <glyph glyph-name="K" unicode="K" horiz-adv-x="1736" 
d="M1860 1410l-327 -337h-593l333 337h587zM906 1413l-98 -343h-486l98 343h486zM1473 3h-511l-289 569l-164 -569h-495l270 933h1125l-274 -276z" />
    <glyph glyph-name="L" unicode="L" horiz-adv-x="2244" 
d="M2106 1072l-73 337h-517l-303 -337h893zM1675 558l138 -562h514l-199 942h-997l-297 -377zM767 1075h-502l98 334l502 3zM1201 357h-630l168 587h-501l-251 -945h933z" />
    <glyph glyph-name="M" unicode="M" horiz-adv-x="1875" 
d="M2015 1413l-97 -343h-1621l95 343h480l284 -273l349 273h510zM1886 936l-264 -933h-511l235 838l-346 -279l-287 279l-238 -838h-474l261 933h1624z" />
    <glyph glyph-name="N" unicode="N" horiz-adv-x="1594" 
d="M1760 1413l-101 -341h-1342l97 341h465l303 -288l73 288h505zM1631 936l-249 -933h-514l158 566l-300 272l-238 -841h-468l256 936h1355z" />
    <glyph glyph-name="O" unicode="O" horiz-adv-x="1498" 
d="M1614 1070h-1349q41 138 140 234q121 117 249 117h696q264 0 264 -280v-71zM1586 937l-9 -32l-112 -388q-50 -179 -157 -299q-193 -217 -517 -217h-244q-195 0 -311 73q-141 89 -141 273q0 98 30 208l104 379h477l-141 -498q-10 -35 -10 -53q0 -40 37 -51h297
q57 15 83 104l146 498z" />
    <glyph glyph-name="P" unicode="P" horiz-adv-x="1711" 
d="M1835 1072h-1575l212 341h1156q47 0 96 -33t72 -77q39 -73 39 -231zM1799 936q-8 -52 -40 -119q-45 -94 -152 -157q-160 -94 -426 -94h-471l-158 -563h-468l256 930z" />
    <glyph glyph-name="Q" unicode="Q" horiz-adv-x="1558" 
d="M1597 1073h-1352q39 124 142 225q118 115 243 115h701q269 0 269 -280q0 -29 -3 -60zM1563 936l-93 -376q-53 -215 -173 -346q-4 -5 -27 -22l162 -195h-370l-40 46q-124 -43 -245 -43h-241q-347 0 -432 214q-21 53 -21 136q0 98 28 203l102 383h481l-143 -505
q-10 -35 -10 -51q0 -41 41 -53h195l-171 196h376l110 413h471z" />
    <glyph glyph-name="R" unicode="R" horiz-adv-x="1630" 
d="M1772 1073h-1587l217 340h1165q47 0 97 -34q47 -32 71 -76q37 -68 37 -230zM1748 936q-17 -125 -143 -235q-59 -51 -96 -65q47 -73 47 -154q0 -48 -14 -134q-9 -54 -108 -345h-459l164 563h-483l-174 -563h-477l275 933h1468z" />
    <glyph glyph-name="S" unicode="S" horiz-adv-x="1627" 
d="M1743 1413l-91 -340h-1328q41 125 153 226q126 114 260 114h1006zM1563 443q-16 -163 -165 -312q-83 -83 -254 -131l-1118 3l109 388l774 -3q100 11 100 98q0 50 -10 66q-13 21 -66 38h-395q-128 0 -188.5 64.5t-60.5 210.5v71h905q166 -22 224 -66q8 -7 111 -121
q38 -98 38 -223q0 -42 -4 -83z" />
    <glyph glyph-name="T" unicode="T" horiz-adv-x="1341" 
d="M1583 1413l-95 -340h-1364l217 340h1242zM1052 936l-249 -933h-468l254 933h463z" />
    <glyph glyph-name="U" unicode="U" horiz-adv-x="1513" 
d="M1649 1406l-95 -336h-468l95 337zM797 1406l-93 -336h-462l97 336h458zM1521 936l-259 -935l-749 -1q-352 0 -436 211q-23 58 -23 114q0 34 8 63l151 548l455 1l-145 -509q-10 -35 -10 -51q0 -41 41 -53h327l173 612h467z" />
    <glyph glyph-name="V" unicode="V" horiz-adv-x="1887" 
d="M2171 1410l-263 -337h-660l244 340zM801 1073h-526l-70 340h514zM1792 938l-784 -935h-514l-194 935h529l76 -314l224 312z" />
    <glyph glyph-name="W" unicode="W" horiz-adv-x="1855" 
d="M1993 1411l-85 -340h-484l98 340h471zM889 1414l-95 -343h-504l98 343h501zM1868 936l-260 -935l-476 2l-292 264l-350 -264l-491 -2l260 935h502l-104 -344l348 278l282 -278l101 344h480z" />
    <glyph glyph-name="X" unicode="X" horiz-adv-x="1514" 
d="M1798 1411l-329 -340l-993 2l-81 334h514l40 -159l150 162zM1341 936l-248 -273l139 -662l-532 2l-39 171l-153 -173l-694 -1l719 795l-30 138z" />
    <glyph glyph-name="Y" unicode="Y" horiz-adv-x="1341" 
d="M1563 1417l-310 -347h-1000l-75 342h514l39 -159l151 166zM1124 935l-249 -267l-183 -666l-535 1l189 668l-60 261z" />
    <glyph glyph-name="Z" unicode="Z" horiz-adv-x="1430" 
d="M1543 1415l-87 -342h-1361l221 340zM1430 937l-763 -558h600l-104 -376h-1233l110 379l802 554z" />
    <glyph glyph-name="bracketleft" unicode="[" horiz-adv-x="862" 
d="M250 -267l198 1l-47 -158l-338 1l374 1359h143zM678 1324l199 -3l50 149l-356 -4l-98 -393h140z" />
    <glyph glyph-name="backslash" unicode="\" horiz-adv-x="963" 
d="M566 -25l-348 1516l180 2l348 -1516z" />
    <glyph glyph-name="bracketright" unicode="]" horiz-adv-x="771" 
d="M233 -266h-194l-36 -156h331l358 1356h-130zM812 1452h-323l-30 -148h193l-63 -232l129 1z" />
    <glyph glyph-name="asciicircum" unicode="^" horiz-adv-x="2048" 
d="M897 1460h252l481 -561h-235l-371 371l-373 -371h-235z" />
    <glyph glyph-name="underscore" unicode="_" 
d="M0 -279h1024v-204h-1024v204z" />
    <glyph glyph-name="grave" unicode="`" 
d="M625 1219l-291 370h252l168 -370h-129z" />
    <glyph glyph-name="a" unicode="a" horiz-adv-x="1573" 
d="M1411 1070h-884l294 343h517zM1639 3h-514l-139 557l-290 -1l-412 -557l-600 1l733 936h1022z" />
    <glyph glyph-name="b" unicode="b" horiz-adv-x="1611" 
d="M1640 1070h-1471l295 349l911 1q268 0 268 -289q0 -29 -3 -61zM1626 934q0 -132 -159 -193q59 -99 63 -107q24 -51 24 -131q0 -8 -2 -41q-12 -201 -162 -327q-119 -100 -255 -134l-1118 2l272 931h1337zM981 450q0 63 -43 70h-318l-40 -143h318q29 0 56 22.5t27 50.5z
" />
    <glyph glyph-name="c" unicode="c" horiz-adv-x="1474" 
d="M1579 1413l-101 -343h-1226q38 126 142 228q117 115 243 115h942zM1289 379l-107 -382h-649q-338 0 -431 217q-28 65 -18 181q2 23 9 82l119 456l508 3l-147 -453q7 -27 13 -54q19 -38 76 -50h627z" />
    <glyph glyph-name="d" unicode="d" horiz-adv-x="1575" 
d="M1613 1070h-1419l220 343h826q134 0 250 -104q118 -107 123 -239zM1639 936q0 -361 -140 -566q-112 -164 -205 -234q-185 -139 -464 -139h-814l268 939h505l-170 -572q48 -19 103 -19q103 0 213 62q179 101 234 289q29 98 33 240h437z" />
    <glyph glyph-name="e" unicode="e" horiz-adv-x="1473" 
d="M1587 1413l-91 -343h-1334l220 343h1205zM1454 936l-99 -373h-664l-55 -193h661l-99 -367h-1202l250 933h1208z" />
    <glyph glyph-name="f" unicode="f" horiz-adv-x="1393" 
d="M1562 1413l-98 -343h-1328l218 343h1208zM1436 936l-113 -374h-658l-153 -559h-538l260 933h1202z" />
    <glyph glyph-name="g" unicode="g" horiz-adv-x="1620" 
d="M1707 1413l-85 -341h-1336q36 119 143 225q117 116 243 116h1035zM1586 884l-109 -400q-45 -164 -138 -273q-178 -208 -517 -208h-245q-358 0 -437 202q-32 83 -33 149q0 56 21 132l127 450h483l-121 -422q-10 -35 -10 -52q0 -40 40 -52h291q61 15 83 104l3 24l-303 -3
l217 349h648z" />
    <glyph glyph-name="h" unicode="h" horiz-adv-x="1652" 
d="M1770 1413l-91 -343h-499l95 343h495zM908 1413l-92 -343h-492l89 344zM1638 936l-253 -936h-496l147 566h-358l-159 -563h-501l259 933h1361z" />
    <glyph glyph-name="i" unicode="i" horiz-adv-x="743" 
d="M869 1413l-94 -343h-493l98 343h489zM745 936l-257 -933h-498l260 933h495z" />
    <glyph glyph-name="j" unicode="j" horiz-adv-x="1578" 
d="M1691 1413l-95 -343h-474l95 343h474zM1562 936q-84 -333 -117 -432q-66 -200 -155 -296q-189 -205 -518 -205h-242q-349 0 -433 205q-20 49 -20 126q0 87 26 210h474l-33 -119q-11 -40 -11 -51q0 -41 41 -53h291q57 15 82 104l144 511h471z" />
    <glyph glyph-name="k" unicode="k" horiz-adv-x="1736" 
d="M1860 1410l-327 -337h-593l333 337h587zM906 1413l-98 -343h-486l98 343h486zM1473 3h-511l-289 569l-164 -569h-495l270 933h1125l-274 -276z" />
    <glyph glyph-name="l" unicode="l" horiz-adv-x="1230" 
d="M884 1413l-101 -341h-496l94 338zM1270 351l-286 -348h-996l264 933h497l-164 -583z" />
    <glyph glyph-name="m" unicode="m" horiz-adv-x="1875" 
d="M2015 1413l-97 -343h-1621l95 343h480l284 -273l349 273h510zM1886 936l-264 -933h-511l235 838l-346 -279l-287 279l-238 -838h-474l261 933h1624z" />
    <glyph glyph-name="n" unicode="n" horiz-adv-x="1594" 
d="M1760 1413l-101 -341h-1342l97 341h465l303 -288l73 288h505zM1631 936l-249 -933h-514l158 566l-300 272l-238 -841h-468l256 936h1355z" />
    <glyph glyph-name="o" unicode="o" horiz-adv-x="1498" 
d="M1614 1070h-1349q41 138 140 234q121 117 249 117h696q264 0 264 -280v-71zM1586 937l-9 -32l-112 -388q-50 -179 -157 -299q-193 -217 -517 -217h-244q-195 0 -311 73q-141 89 -141 273q0 98 30 208l104 379h477l-141 -498q-10 -35 -10 -53q0 -40 37 -51h297
q57 15 83 104l146 498z" />
    <glyph glyph-name="p" unicode="p" horiz-adv-x="1711" 
d="M1835 1072h-1575l212 341h1156q47 0 96 -33t72 -77q39 -73 39 -231zM1799 936q-8 -52 -40 -119q-45 -94 -152 -157q-160 -94 -426 -94h-471l-158 -563h-468l256 930z" />
    <glyph glyph-name="q" unicode="q" horiz-adv-x="1558" 
d="M1597 1073h-1352q39 124 142 225q118 115 243 115h701q269 0 269 -280q0 -29 -3 -60zM1563 936l-93 -376q-53 -215 -173 -346q-4 -5 -27 -22l162 -195h-370l-40 46q-124 -43 -245 -43h-241q-347 0 -432 214q-21 53 -21 136q0 98 28 203l102 383h481l-143 -505
q-10 -35 -10 -51q0 -41 41 -53h195l-171 196h376l110 413h471z" />
    <glyph glyph-name="r" unicode="r" horiz-adv-x="1682" 
d="M1772 1073h-1587l217 340h1165q47 0 97 -34q47 -32 71 -76q37 -68 37 -230zM1748 936q-17 -125 -143 -235q-59 -51 -96 -65q47 -73 47 -154q0 -48 -14 -134q-9 -54 -108 -345h-459l164 563h-483l-174 -563h-477l275 933h1468z" />
    <glyph glyph-name="s" unicode="s" horiz-adv-x="1627" 
d="M1743 1413l-91 -340h-1328q41 125 153 226q126 114 260 114h1006zM1563 443q-16 -163 -165 -312q-83 -83 -254 -131l-1118 3l109 388l774 -3q100 11 100 98q0 50 -10 66q-13 21 -66 38h-395q-128 0 -188.5 64.5t-60.5 210.5v71h905q166 -22 224 -66q8 -7 111 -121
q38 -98 38 -223q0 -42 -4 -83z" />
    <glyph glyph-name="t" unicode="t" horiz-adv-x="1474" 
d="M1583 1413l-95 -340h-1364l217 340h1242zM1052 936l-249 -933h-468l254 933h463z" />
    <glyph glyph-name="u" unicode="u" horiz-adv-x="1513" 
d="M1649 1406l-95 -336h-468l95 337zM797 1406l-93 -336h-462l97 336h458zM1521 936l-259 -935l-749 -1q-352 0 -436 211q-23 58 -23 114q0 34 8 63l151 548l455 1l-145 -509q-10 -35 -10 -51q0 -41 41 -53h327l173 612h467z" />
    <glyph glyph-name="v" unicode="v" horiz-adv-x="1887" 
d="M2171 1410l-263 -337h-660l244 340zM801 1073h-526l-70 340h514zM1792 938l-784 -935h-514l-194 935h529l76 -314l224 312z" />
    <glyph glyph-name="w" unicode="w" horiz-adv-x="1855" 
d="M1993 1411l-85 -340h-484l98 340h471zM889 1414l-95 -343h-504l98 343h501zM1868 936l-260 -935l-476 2l-292 264l-350 -264l-491 -2l260 935h502l-104 -344l348 278l282 -278l101 344h480z" />
    <glyph glyph-name="x" unicode="x" horiz-adv-x="1514" 
d="M1798 1411l-329 -340l-993 2l-81 334h514l40 -159l150 162zM1341 936l-248 -273l139 -662l-532 2l-39 171l-153 -173l-694 -1l719 795l-30 138z" />
    <glyph glyph-name="y" unicode="y" horiz-adv-x="1297" 
d="M1563 1417l-310 -347h-1000l-75 342h514l39 -159l151 166zM1124 935l-249 -267l-183 -666l-535 1l189 668l-60 261z" />
    <glyph glyph-name="z" unicode="z" horiz-adv-x="1430" 
d="M1543 1415l-87 -342h-1361l221 340zM1430 937l-763 -558h600l-104 -376h-1233l110 379l802 554z" />
    <glyph glyph-name="braceleft" unicode="{" horiz-adv-x="712" 
d="M473 787q-71 -171 -223 -243q97 -61 98 -201q1 -87 -42 -255q-55 -216 -58 -259q-4 -58 25 -80q24 -18 84 -20l26 -1l-40 -157l-46 1q-135 3 -175 88q-31 67 -8 205q3 19 50 209q35 143 41 185q4 29 4 59q0 141 -116 150l41 163q121 -2 188 130q51 100 73 178h130
q-26 -89 -52 -152zM558 1074l16 63q28 112 55 147q43 57 138 53l26 -1l40 157l-46 1q-84 2 -132 -16q-117 -43 -183 -225q-14 -37 -50 -181h136v2z" />
    <glyph glyph-name="bar" unicode="|" 
d="M410 1565h206v-2048h-206v2048z" />
    <glyph glyph-name="braceright" unicode="}" horiz-adv-x="493" 
d="M268 725q7 -129 105 -195q-144 -65 -216 -245q-29 -72 -94 -353q-26 -112 -51 -148q-41 -58 -137 -58h-26l-36 -157h46q80 0 132 21q115 47 178 231q17 51 61 248q36 164 75 240q70 136 186 140l38 163q-121 2 -121 151q0 47 29 177h-139q-34 -150 -30 -215zM326 1074
q31 134 32 165q3 58 -27 79q-24 16 -85 16h-26l36 157h46q200 0 200 -192q0 -41 -10 -91q-7 -35 -29 -134h-137z" />
    <glyph glyph-name="asciitilde" unicode="~" horiz-adv-x="1706" 
d="M1530 803v-221q-202 -138 -379 -138q-93 0 -184 31q-18 6 -71 25q-217 75 -333 75q-165 0 -385 -157v221q213 143 387 143q117 0 291 -58q3 -1 4 -1l55 -19q159 -55 240 -55q163 0 375 154z" />
    <glyph glyph-name="cent" unicode="&#xa2;" horiz-adv-x="1161" 
d="M641 887h-18q-139 0 -215 -151q-60 -120 -60 -273q0 -168 94 -223zM291 -233l67 229q-151 51 -229 190q-70 125 -70 295q0 265 140 445q153 196 411 196q44 0 92 -2l58 191h114l-61 -211q279 -87 283 -389h-289q0 102 -76 151l-201 -653q18 -2 35 -2q168 0 217 184h289
q-36 -205 -178 -316q-137 -108 -348 -108q-36 0 -76 6l-61 -206h-117z" />
    <glyph glyph-name="sterling" unicode="&#xa3;" horiz-adv-x="1161" 
d="M127 -35l-37 209q211 143 211 348q0 32 -6 98l-193 1l25 147h139q-22 116 -22 217q0 214 123.5 338.5t337.5 124.5q197 0 312 -83q132 -94 132 -284q0 -54 -8 -110h-260q10 64 10 94q0 170 -170 170q-195 0 -195 -258q0 -89 21 -209h313l-20 -147l-283 -1q2 -10 2 -36
q0 -185 -180 -359q99 31 174 31q50 0 146.5 -24.5t146.5 -24.5q115 0 203 88l-56 -262q-99 -68 -200 -68q-74 0 -215.5 44t-215.5 44q-123 0 -235 -88z" />
    <glyph glyph-name="section" unicode="&#xa7;" 
d="M590 428q98 32 98 107q0 73 -190 221l-99 78q-108 -23 -108 -105q0 -69 112 -156zM14 109l230 -1q2 -133 143 -133q58 0 98 26q47 30 47 85q0 62 -94 137l-223 178q-166 133 -166 299q0 195 236 252q-82 98 -82 207q0 151 109 241q101 85 255 85q361 0 361 -311v-29h-228
q0 141 -135 141q-127 0 -127 -104q0 -64 148 -178l162 -125q188 -145 188 -318q0 -105 -71 -173q-67 -65 -173 -77q82 -90 82 -209q0 -155 -120 -249q-110 -86 -269 -86q-371 0 -371 319v23z" />
    <glyph glyph-name="dieresis" unicode="&#xa8;" horiz-adv-x="476" 
d="M50 1270v205h154v-205h-154zM356 1270v205h154v-205h-154z" />
    <glyph glyph-name="yen" unicode="&#xa5;" horiz-adv-x="1245" 
d="M375 0l96 537l-8 16h-469l20 111h404l-51 129h-330l20 110h265l-199 492h293l225 -592l328 592h303l-295 -492h274l-20 -110h-322l-80 -129h379l-18 -111h-424l-14 -25l-84 -528h-293z" />
    <glyph glyph-name="ordmasculine" unicode="&#xba;" horiz-adv-x="537" 
d="M306 1491q138 0 210 -125q59 -102 59 -251q0 -180 -83 -286q-69 -89 -186 -89q-138 0 -210 122q-59 100 -59 249q0 152 58 254q72 126 211 126zM306 1358q-147 0 -147 -244q0 -242 148 -242q147 0 147 244q0 242 -148 242z" />
    <glyph glyph-name="exclamdown" unicode="&#xa1;" horiz-adv-x="676" 
d="M616 1473l-49 -299h-305l47 299h307zM471 1020l-100 -1020h-314l260 1020h154z" />
    <glyph glyph-name="guillemotleft" unicode="&#xab;" horiz-adv-x="913" 
d="M725 137l-279 316l43 213l402 286l-53 -247l-238 -166l168 -189zM297 137l-279 316l45 213l398 286l-49 -247l-238 -166l166 -189z" />
    <glyph glyph-name="quotedblleft" unicode="&#x201c;" horiz-adv-x="1034" 
d="M371 1440h363l-217 -561h-362zM834 1440h363l-217 -561h-363z" />
    <glyph glyph-name="quotedblright" unicode="&#x201d;" horiz-adv-x="1034" 
d="M371 1440h363l-217 -561h-362zM834 1440h363l-217 -561h-363z" />
    <glyph glyph-name="quoteleft" unicode="&#x2018;" horiz-adv-x="492" 
d="M396 1440h363l-217 -561h-362z" />
    <glyph glyph-name="quoteright" unicode="&#x2019;" horiz-adv-x="492" 
d="M396 1440h363l-217 -561h-362z" />
    <glyph glyph-name="currency" unicode="&#xa4;" horiz-adv-x="1241" 
d="M623 1161q-115 0 -196 -80.5t-81 -195.5q0 -117 80 -196t197 -79q116 0 196 79.5t80 195.5q0 115 -80.5 195.5t-195.5 80.5zM172 1438l205 -203q108 78 244 78q139 0 247 -78l203 203l105 -107l-203 -205q76 -106 76 -241q0 -132 -76 -242l203 -205l-105 -104l-203 203
q-105 -78 -245 -78q-143 0 -246 78l-205 -203l-104 104l202 205q-75 107 -75 242q0 136 75 241l-202 205z" />
    <glyph glyph-name="quotedblbase" unicode="&#x201e;" horiz-adv-x="920" 
d="M721 272l-47 -249q-26 -136 -114 -218q-92 -86 -228 -89l16 96q163 24 193 188h-156l53 272h283zM334 272l-47 -249q-26 -136 -114 -218q-92 -86 -228 -89l16 96q161 24 193 188h-154l51 272h283z" />
    <glyph glyph-name="brokenbar" unicode="&#xa6;" 
d="M410 408h206v-758h-206v758zM410 1432h206v-758h-206v758z" />
    <glyph glyph-name="copyright" unicode="&#xa9;" horiz-adv-x="1706" 
d="M1212 897h-188q-17 147 -172 147q-106 0 -157 -108q-38 -81 -38 -201q0 -301 203 -301q151 0 170 161l193 1q-8 -147 -117 -230q-100 -77 -252 -77q-195 0 -301 125q-100 117 -100 315q0 199 100 320q108 131 303 131q143 0 240 -69q108 -76 116 -214zM854 1356
q-262 0 -441.5 -179.5t-179.5 -441.5q0 -259 181 -439.5t440 -180.5q261 0 441 179.5t180 440.5q0 262 -179.5 441.5t-441.5 179.5zM852 1479q316 0 530.5 -215t214.5 -531q0 -310 -215 -520q-228 -223 -530 -223q-306 0 -523.5 218.5t-217.5 524.5q0 312 215 529t526 217z
" />
    <glyph glyph-name="registered" unicode="&#xae;" horiz-adv-x="1706" 
d="M745 1034v-239h99q170 0 170 116q0 123 -180 123h-89zM545 1161h323q353 0 353 -237q0 -174 -181 -219l185 -369h-224l-157 338h-99v-338h-200v825zM854 1356q-256 0 -432 -176q-189 -189 -189 -445q0 -257 181 -439.5t438 -182.5q256 0 439.5 177.5t183.5 432.5
q0 267 -176 449q-179 184 -445 184zM852 1479q313 0 534 -224q211 -214 211 -522q0 -312 -216.5 -527.5t-528.5 -215.5q-308 0 -524.5 217.5t-216.5 525.5q0 200 101.5 377t274.5 275q167 94 365 94z" />
    <glyph glyph-name="plusminus" unicode="&#xb1;" horiz-adv-x="976" 
d="M1160 665l-325 -4l-77 -277l-249 -1l85 276h-332l81 263h332l96 307l239 -1l-96 -304l332 -3zM1017 -3h-918l73 260h918z" />
    <glyph glyph-name="twosuperior" unicode="&#xb2;" horiz-adv-x="496" 
d="M818 1303q0 69 -22 108q-44 77 -106 77h-272q-75 0 -143 -56t-92 -129h635zM24 719l641 1l53 189h-322q46 39 157 82t156 78q74 58 97 165h-281q1 -3 1 -6q0 -37 -113 -90q-169 -80 -242 -140q-136 -113 -147 -279z" />
    <glyph glyph-name="threesuperior" unicode="&#xb3;" horiz-adv-x="494" 
d="M762 1295q0 68 -22 109q-41 77 -108 77h-275q-75 0 -145 -57q-66 -55 -91 -129h641zM352 1021q107 0 107 -46q0 -51 -80 -77q-25 -8 -50 -8q-47 0 -47 36q0 10 3 23h-251q-12 -71 -6 -99q30 -144 189 -144h207q105 21 181 110t76 195q0 62 -33 102q61 52 92 112h-430
l-55 -204h97z" />
    <glyph glyph-name="onesuperior" unicode="&#xb9;" horiz-adv-x="363" 
d="M270 733v554q-84 -81 -184 -113v123q127 50 214 187h89v-751h-119z" />
    <glyph glyph-name="onequarter" unicode="&#xbc;" horiz-adv-x="1480" 
d="M462 1247l-124 -450h-235l124 450h235zM479 1308h-300l104 161h239zM961 753l-54 -181h246l51 180zM1339 752l-50 -180h248l49 180h-247zM1134 -1l72 251l-381 -1l67 254h243l-18 -67h139l16 67h249l-137 -506zM444 -183l496 1701h137l-498 -1701h-135z" />
    <glyph glyph-name="onehalf" unicode="&#xbd;" horiz-adv-x="1451" 
d="M462 1247l-124 -450h-235l124 450h235zM479 1308h-300l104 161h239zM1554 516q0 62 -19 96q-38 68 -95 68h-241q-67 0 -127 -49.5t-82 -114.5h564zM849 -3l569 1l48 168h-287q42 35 140.5 73t138.5 69q65 51 86 146h-250q1 -2 1 -5q0 -33 -101 -80q-149 -70 -214 -124
q-121 -101 -131 -248zM457 -183l496 1701h137l-498 -1701h-135z" />
    <glyph glyph-name="threequarters" unicode="&#xbe;" horiz-adv-x="1640" 
d="M821 1302q0 69 -21 110q-40 78 -108 78h-273q-75 0 -144 -59q-65 -55 -90 -129h636zM415 1024q106 0 106 -46q0 -51 -80 -78q-27 -9 -50 -9q-47 0 -47 37q0 10 4 23h-249q-13 -71 -7 -100q30 -146 188 -146h206q105 21 180 111t75 197q0 64 -33 104q61 53 92 114h-427
l-55 -207h97zM1091 804l-57 -193h262l54 192zM1494 803l-53 -192h263l53 192h-263zM1275 1l77 268l-405 -2l71 271h259l-19 -71h147l18 71h264l-146 -539zM583 -190l496 1701h137l-498 -1701h-135z" />
    <glyph glyph-name="Egrave" unicode="&#xc8;" horiz-adv-x="1034" 
 />
    <glyph glyph-name="Eacute" unicode="&#xc9;" horiz-adv-x="492" 
 />
    <glyph glyph-name="multiply" unicode="&#xd7;" horiz-adv-x="789" 
d="M130 409l259 315l-258 314l100 122l258 -314l256 313l99 -121l-257 -313l258 -314l-100 -122l-258 314l-258 -315z" />
    <glyph glyph-name="divide" unicode="&#xf7;" horiz-adv-x="987" 
d="M985 594h-918l73 260h918zM392 316l50 213l236 -3l-49 -210h-237zM462 920l53 205l237 1l-48 -204z" />
    <glyph glyph-name="trademark" unicode="&#x2122;" horiz-adv-x="1706" 
d="M803 1462h196l127 -332l123 332h197v-547h-135v410l-154 -410h-61l-158 410v-410h-135v547zM207 1462h485v-112h-168v-435h-149v435h-168v112z" />
    <glyph glyph-name="nonbreakingspace" unicode="&#xa0;" horiz-adv-x="582" 
 />
    <glyph glyph-name="glyph128" horiz-adv-x="582" 
 />
    <glyph glyph-name="glyph129" horiz-adv-x="582" 
 />
    </font>
</defs>
</svg>
